# xmcd
#
# Track frame offsets: 
#        150
#        21768
#        36407
#        57254
#        80416
#        102547
#        119786
#        143883
#        158457
#        175722
#        192966
#        207786
#        222110
#
# Disc length: 3092 seconds
#
# Revision: 0
# Processed by: cddbd v1.5.2PL0 Copyright (c) Steve Scherf et al.
# Submitted via: ExactAudioCopy v0.99pb3
#
DISCID=b50c120d
DTITLE=Malford Milligan Band - Sweet cherry soul
DYEAR=2002
DGENRE=Blues
TTITLE0=Find your way home
TTITLE1=Lickin' stick
TTITLE2=I've got dreams to remember
TTITLE3=River runs deep
TTITLE4=I've never been to seminary
TTITLE5=Unforgiving memories
TTITLE6=Against my will
TTITLE7=Pouring water on a drowning man
TTITLE8=You'll be mine
TTITLE9=Burning fire
TTITLE10=Mama talk to your daughter
TTITLE11=Shake 'em on down
TTITLE12=That lonesome road
EXTD=
EXTT0=
EXTT1=
EXTT2=
EXTT3=
EXTT4=
EXTT5=
EXTT6=
EXTT7=
EXTT8=
EXTT9=
EXTT10=
EXTT11=
EXTT12=
PLAYORDER=
